<svg xmlns="http://www.w3.org/2000/svg" viewBox="0 0 600 880" font-family="Arial, sans-serif" font-size="8">
  <defs>
    <style>
      .pcb-fill   { fill: #0d6e3a; }
      .silk       { fill: #ffffff; stroke: none; font-family: 'Arial Narrow', sans-serif; font-size: 8; }
      .copper     { stroke: #b85c1a; stroke-linecap: round; fill: none; }
      .copper-fill{ fill: #b85c1a; }
      .pad        { fill: #d9d9d9; stroke: #999; stroke-width: 0.3; }
      .pad-rect   { fill: #d9d9d9; stroke: none; }
      .drill      { fill: #ffffff; stroke: #999; stroke-width: 0.5; }
      .ic-pkg     { fill: #2a2a2a; }
      .ic-pin1    { fill: #d9d9d9; }
      .btn-pkg    { fill: #d9d9d9; stroke: #888; stroke-width: 0.4; }
      .btn-marker { fill: none; stroke: #555; stroke-width: 0.4; }
      .conn       { fill: #c4c4c4; stroke: #555; stroke-width: 0.4; }
      .outline    { fill: none; stroke: #fff; stroke-width: 1.2; stroke-dasharray: 4 2; }
      .title      { fill: #ffffff; font-family: 'Arial', sans-serif; font-size: 14; font-weight: bold; }
      .annot      { fill: #1c1c1c; font-family: 'Courier New', monospace; font-size: 11; }
      .shield     { fill: #8a8a8a; stroke: #444; stroke-width: 0.4; }
      .shield-hatch { stroke: #6a6a6a; stroke-width: 0.25; opacity: 0.5; }
      .keepout    { fill: none; stroke: #ffffff; stroke-width: 0.5; stroke-dasharray: 3 2; }
      .fid-pad    { fill: #b85c1a; }
      .fid-mask   { fill: none; stroke: #ffffff; stroke-width: 0.4; }
      .tp-pad     { fill: #b85c1a; stroke: #ffffff; stroke-width: 0.4; }
      .via        { fill: #b85c1a; stroke: #ffffff; stroke-width: 0.3; }
      .gnd-pour   { stroke: #ffffff; stroke-width: 0.2; opacity: 0.18; }
    </style>
  </defs>

  <rect width="600" height="880" fill="#fafafa" />

  <g transform="translate(130 40)">
    <path class="pcb-fill"
          d="M 95 0
             C 50 4, 18 44, 8 124
             C 0 210, -2 308, 6 412
             C 14 514, 28 626, 50 690
             C 64 738, 92 758, 118 762
             L 222 762
             C 248 758, 276 738, 290 690
             C 312 626, 326 514, 334 412
             C 342 308, 340 210, 332 124
             C 322 44, 290 4, 245 0
             L 95 0 Z" />
    <path class="outline"
          d="M 96 2
             C 52 6, 20 46, 10 126
             C 2 212, 0 308, 8 412
             C 16 514, 30 626, 52 688
             C 66 736, 92 756, 118 760
             L 222 760
             C 248 756, 274 736, 288 688
             C 310 626, 324 514, 332 412
             C 340 308, 338 212, 330 126
             C 320 46, 288 6, 244 2
             L 96 2 Z" />

    <text x="170" y="52" text-anchor="middle" class="title">LAUR · MAIN · P1</text>
    <text x="170" y="68" text-anchor="middle" class="silk" font-size="9">© LAUR Co · pcb-wizards</text>

    <g transform="translate(140 18)">
      <rect class="copper-fill" width="20" height="8" />
      <text x="10" y="-2" text-anchor="middle" class="silk" font-size="6">D1 IR LED</text>
    </g>
    <g transform="translate(195 18)">
      <circle class="drill" cx="6" cy="4" r="2.5" />
      <text x="14" y="2" class="silk" font-size="6">mic port</text>
      <rect class="ic-pkg" x="-2" y="10" width="16" height="10" />
      <text x="6" y="17" text-anchor="middle" class="silk" font-size="6">U3</text>
    </g>

    <g transform="translate(70 108)">
      <rect class="btn-pkg" width="22" height="22" rx="3" />
      <circle class="btn-marker" cx="11" cy="11" r="6" />
      <rect class="pad-rect" x="-3" y="4"  width="6" height="3" />
      <rect class="pad-rect" x="-3" y="15" width="6" height="3" />
      <rect class="pad-rect" x="19" y="4"  width="6" height="3" />
      <rect class="pad-rect" x="19" y="15" width="6" height="3" />
      <text x="11" y="34" text-anchor="middle" class="silk" font-size="6">SW2 PWR</text>
    </g>

    <g transform="translate(248 108)">
      <rect class="btn-pkg" width="22" height="22" rx="3" />
      <circle class="btn-marker" cx="11" cy="11" r="6" />
      <rect class="pad-rect" x="-3" y="4"  width="6" height="3" />
      <rect class="pad-rect" x="-3" y="15" width="6" height="3" />
      <rect class="pad-rect" x="19" y="4"  width="6" height="3" />
      <rect class="pad-rect" x="19" y="15" width="6" height="3" />
      <text x="11" y="34" text-anchor="middle" class="silk" font-size="6">SW5 MUTE</text>
    </g>

    <g transform="translate(135 162)">
      <rect class="conn" width="70" height="14" />
      <g class="copper-fill">
        <rect x="4"  y="-2" width="3" height="3" />
        <rect x="22" y="-2" width="3" height="3" />
        <rect x="40" y="-2" width="3" height="3" />
        <rect x="58" y="-2" width="3" height="3" />
      </g>
      <text x="35" y="10" text-anchor="middle" class="silk" font-size="7">J1 OLED</text>
    </g>

    <g transform="translate(120 220)">
      <rect class="ic-pkg" width="100" height="100" />

      <rect class="shield" x="2" y="22" width="96" height="76" />
      <g class="shield-hatch">
        <line x1="4"  y1="30" x2="96" y2="30" />
        <line x1="4"  y1="40" x2="96" y2="40" />
        <line x1="4"  y1="50" x2="96" y2="50" />
        <line x1="4"  y1="60" x2="96" y2="60" />
        <line x1="4"  y1="70" x2="96" y2="70" />
        <line x1="4"  y1="80" x2="96" y2="80" />
        <line x1="4"  y1="90" x2="96" y2="90" />
      </g>

      <path d="M 22 6 L 22 14 L 30 14 L 30 4 L 38 4 L 38 14 L 46 14 L 46 4 L 54 4 L 54 14 L 62 14 L 62 4 L 70 4 L 70 14 L 78 14"
            stroke="#b85c1a" stroke-width="0.9" fill="none" />
      <rect class="keepout" x="2" y="2" width="96" height="18" />

      <circle class="ic-pin1" cx="6" cy="26" r="1.8" />

      <g class="pad-rect">
        <rect x="6"   y="100" width="3" height="6" /><rect x="14"  y="100" width="3" height="6" />
        <rect x="22"  y="100" width="3" height="6" /><rect x="30"  y="100" width="3" height="6" />
        <rect x="38"  y="100" width="3" height="6" /><rect x="46"  y="100" width="3" height="6" />
        <rect x="54"  y="100" width="3" height="6" /><rect x="62"  y="100" width="3" height="6" />
        <rect x="70"  y="100" width="3" height="6" /><rect x="78"  y="100" width="3" height="6" />
        <rect x="86"  y="100" width="3" height="6" />
        <rect x="-6" y="30" width="6" height="3" /><rect x="-6" y="38" width="6" height="3" />
        <rect x="-6" y="46" width="6" height="3" /><rect x="-6" y="54" width="6" height="3" />
        <rect x="-6" y="62" width="6" height="3" /><rect x="-6" y="70" width="6" height="3" />
        <rect x="-6" y="78" width="6" height="3" /><rect x="-6" y="86" width="6" height="3" />
        <rect x="100" y="30" width="6" height="3" /><rect x="100" y="38" width="6" height="3" />
        <rect x="100" y="46" width="6" height="3" /><rect x="100" y="54" width="6" height="3" />
        <rect x="100" y="62" width="6" height="3" /><rect x="100" y="70" width="6" height="3" />
        <rect x="100" y="78" width="6" height="3" /><rect x="100" y="86" width="6" height="3" />
      </g>

      <text x="50" y="58" text-anchor="middle" fill="#3a3a3a" font-family="Arial" font-size="6" font-weight="bold">ESPRESSIF</text>
      <text x="50" y="68" text-anchor="middle" fill="#3a3a3a" font-family="Arial" font-size="5">ESP32-S3-MINI</text>
      <text x="-2" y="-2" class="silk" font-size="8">U1</text>
    </g>

    <g transform="translate(120 372)">
      <circle class="btn-pkg" cx="50" cy="50" r="44" />
      <circle class="btn-marker" cx="50" cy="50" r="28" />
      <rect class="pad-rect" x="20" y="-3" width="6" height="3" />
      <rect class="pad-rect" x="74" y="-3" width="6" height="3" />
      <rect class="pad-rect" x="20" y="100" width="6" height="3" />
      <rect class="pad-rect" x="74" y="100" width="6" height="3" />
      <text x="50" y="112" text-anchor="middle" class="silk" font-size="8">SW1 · VOICE</text>
    </g>

    <g transform="translate(34 440)">
      <rect class="btn-pkg" width="22" height="22" rx="3" />
      <circle class="btn-marker" cx="11" cy="11" r="6" />
      <rect class="pad-rect" x="-3" y="4"  width="6" height="3" />
      <rect class="pad-rect" x="-3" y="15" width="6" height="3" />
      <rect class="pad-rect" x="19" y="4"  width="6" height="3" />
      <rect class="pad-rect" x="19" y="15" width="6" height="3" />
      <text x="11" y="34" text-anchor="middle" class="silk" font-size="6">SW3 V+</text>
    </g>

    <g transform="translate(34 552)">
      <rect class="btn-pkg" width="22" height="22" rx="3" />
      <circle class="btn-marker" cx="11" cy="11" r="6" />
      <rect class="pad-rect" x="-3" y="4"  width="6" height="3" />
      <rect class="pad-rect" x="-3" y="15" width="6" height="3" />
      <rect class="pad-rect" x="19" y="4"  width="6" height="3" />
      <rect class="pad-rect" x="19" y="15" width="6" height="3" />
      <text x="11" y="34" text-anchor="middle" class="silk" font-size="6">SW4 V-</text>
    </g>

    <g transform="translate(270 510)">
      <rect class="btn-pkg" x="-7" y="-26" width="14" height="14" rx="2" />
      <circle class="btn-marker" cx="0" cy="-19" r="4" />
      <text x="0" y="-30" text-anchor="middle" class="silk" font-size="6">SW6 UP</text>

      <rect class="btn-pkg" x="-7" y="12" width="14" height="14" rx="2" />
      <circle class="btn-marker" cx="0" cy="19" r="4" />
      <text x="0" y="38" text-anchor="middle" class="silk" font-size="6">SW7 DN</text>

      <rect class="btn-pkg" x="-26" y="-7" width="14" height="14" rx="2" />
      <circle class="btn-marker" cx="-19" cy="0" r="4" />
      <text x="-32" y="2" text-anchor="end" class="silk" font-size="6">SW8 L</text>

      <rect class="btn-pkg" x="12" y="-7" width="14" height="14" rx="2" />
      <circle class="btn-marker" cx="19" cy="0" r="4" />
      <text x="32" y="2" class="silk" font-size="6">SW9 R</text>

      <circle class="btn-pkg" cx="0" cy="0" r="6" />
      <circle class="btn-marker" cx="0" cy="0" r="3" />
      <text x="0" y="2" text-anchor="middle" class="silk" font-size="5">OK</text>
      <text x="0" y="-46" text-anchor="middle" class="silk" font-size="7">SW10 D-PAD</text>
    </g>

    <g transform="translate(60 600)">
      <rect class="btn-pkg" width="32" height="32" rx="3" />
      <circle class="btn-marker" cx="16" cy="16" r="9" />
      <rect class="pad-rect" x="-3" y="6"  width="6" height="3" />
      <rect class="pad-rect" x="-3" y="23" width="6" height="3" />
      <rect class="pad-rect" x="29" y="6"  width="6" height="3" />
      <rect class="pad-rect" x="29" y="23" width="6" height="3" />
      <text x="16" y="44" text-anchor="middle" class="silk" font-size="6">SW11 BACK 6s</text>
    </g>
    <g transform="translate(140 600)">
      <rect class="btn-pkg" width="60" height="32" rx="14" />
      <circle class="btn-marker" cx="20" cy="16" r="6" />
      <circle class="btn-marker" cx="40" cy="16" r="6" />
      <rect class="pad-rect" x="-3" y="6"  width="6" height="3" />
      <rect class="pad-rect" x="-3" y="23" width="6" height="3" />
      <rect class="pad-rect" x="57" y="6"  width="6" height="3" />
      <rect class="pad-rect" x="57" y="23" width="6" height="3" />
      <text x="30" y="44" text-anchor="middle" class="silk" font-size="6">SW12 PLAY/PAUSE</text>
    </g>
    <g transform="translate(248 600)">
      <rect class="btn-pkg" width="32" height="32" rx="3" />
      <circle class="btn-marker" cx="16" cy="16" r="9" />
      <rect class="pad-rect" x="-3" y="6"  width="6" height="3" />
      <rect class="pad-rect" x="-3" y="23" width="6" height="3" />
      <rect class="pad-rect" x="29" y="6"  width="6" height="3" />
      <rect class="pad-rect" x="29" y="23" width="6" height="3" />
      <text x="16" y="44" text-anchor="middle" class="silk" font-size="6">SW13 FWD 30s</text>
    </g>

    <g transform="translate(60 660)">
      <text x="60" y="-2" text-anchor="middle" class="silk" font-size="7">IR driver (to top-edge LED)</text>
      <rect class="ic-pkg" width="20" height="14" />
      <rect class="pad-rect" x="-2" y="2"  width="4" height="3" />
      <rect class="pad-rect" x="-2" y="9"  width="4" height="3" />
      <rect class="pad-rect" x="18" y="5.5" width="4" height="3" />
      <text x="10" y="9"  text-anchor="middle" class="silk" font-size="6">Q1</text>
      <rect class="pad-rect" x="34"  y="2" width="3" height="6" />
      <rect class="pad-rect" x="43"  y="2" width="3" height="6" />
      <rect class="ic-pkg" x="37" y="2" width="6" height="6" />
      <text x="40" y="20" text-anchor="middle" class="silk" font-size="6">R1</text>
      <rect class="pad-rect" x="58"  y="2" width="3" height="6" />
      <rect class="pad-rect" x="67"  y="2" width="3" height="6" />
      <rect class="ic-pkg" x="61" y="2" width="6" height="6" />
      <text x="64" y="20" text-anchor="middle" class="silk" font-size="6">R2</text>
    </g>

    <g transform="translate(90 700)">
      <rect class="copper-fill" width="20" height="30" />
      <text x="10" y="46" text-anchor="middle" class="silk" font-size="7">BT1+</text>
    </g>
    <g transform="translate(140 706)">
      <rect class="ic-pkg" width="60" height="20" />
      <rect class="pad-rect" x="-3" y="3"  width="4" height="3" />
      <rect class="pad-rect" x="-3" y="9"  width="4" height="3" />
      <rect class="pad-rect" x="-3" y="15" width="4" height="3" />
      <rect class="pad-rect" x="59" y="6"  width="4" height="3" />
      <rect class="pad-rect" x="59" y="12" width="4" height="3" />
      <text x="30" y="14" text-anchor="middle" class="silk" font-size="7">U2 LDO</text>
    </g>
    <g transform="translate(230 700)">
      <rect class="copper-fill" width="20" height="30" />
      <text x="10" y="46" text-anchor="middle" class="silk" font-size="7">BT1-</text>
    </g>

    <circle class="drill" cx="34"  cy="80"  r="5" />
    <circle class="drill" cx="306" cy="80"  r="5" />
    <circle class="drill" cx="40"  cy="740" r="5" />
    <circle class="drill" cx="300" cy="740" r="5" />

    <g>
      <circle class="fid-pad"  cx="50"  cy="62"  r="1.2" />
      <circle class="fid-mask" cx="50"  cy="62"  r="2.4" />
      <circle class="fid-pad"  cx="288" cy="62"  r="1.2" />
      <circle class="fid-mask" cx="288" cy="62"  r="2.4" />
      <circle class="fid-pad"  cx="170" cy="752" r="1.2" />
      <circle class="fid-mask" cx="170" cy="752" r="2.4" />
      <text x="55"  y="64"  class="silk" font-size="5">FID1</text>
      <text x="293" y="64"  class="silk" font-size="5">FID2</text>
      <text x="175" y="754" class="silk" font-size="5">FID3</text>
    </g>

    <g>
      <circle class="tp-pad" cx="234" cy="332" r="2" />
      <text x="240" y="334" class="silk" font-size="5">TP1 SWDIO</text>
      <circle class="tp-pad" cx="234" cy="346" r="2" />
      <text x="240" y="348" class="silk" font-size="5">TP2 SWCLK</text>
    </g>

    <g class="via">
      <circle cx="228" cy="260" r="1.0" />
      <circle cx="228" cy="268" r="1.0" />
      <circle cx="228" cy="276" r="1.0" />
      <circle cx="228" cy="284" r="1.0" />
      <circle cx="228" cy="292" r="1.0" />

      <circle cx="270" cy="480" r="1.0" />
      <circle cx="270" cy="540" r="1.0" />
      <circle cx="240" cy="510" r="1.0" />
      <circle cx="300" cy="510" r="1.0" />
      <circle cx="270" cy="500" r="1.0" />

      <circle cx="92"  cy="685" r="1.4" />
      <circle cx="150" cy="40"  r="1.4" />
      <circle cx="213" cy="712" r="1.4" />
      <circle cx="213" cy="340" r="1.4" />

      <circle cx="124" cy="226" r="1.0" />
      <circle cx="216" cy="226" r="1.0" />
    </g>

    <g class="gnd-pour">
      <line x1="234" y1="362" x2="262" y2="362" />
      <line x1="234" y1="368" x2="262" y2="368" />
      <line x1="234" y1="374" x2="262" y2="374" />
      <line x1="234" y1="380" x2="262" y2="380" />
      <line x1="234" y1="386" x2="262" y2="386" />
      <line x1="234" y1="392" x2="262" y2="392" />
      <line x1="234" y1="398" x2="262" y2="398" />
      <line x1="234" y1="404" x2="262" y2="404" />
      <line x1="234" y1="410" x2="262" y2="410" />
      <line x1="234" y1="416" x2="262" y2="416" />
      <line x1="234" y1="422" x2="262" y2="422" />
      <line x1="234" y1="428" x2="262" y2="428" />
      <line x1="234" y1="434" x2="262" y2="434" />
      <line x1="234" y1="440" x2="262" y2="440" />
      <line x1="234" y1="446" x2="262" y2="446" />
      <line x1="295" y1="180" x2="320" y2="180" />
      <line x1="295" y1="186" x2="320" y2="186" />
      <line x1="295" y1="192" x2="320" y2="192" />
      <line x1="295" y1="198" x2="320" y2="198" />
      <line x1="295" y1="204" x2="320" y2="204" />
      <line x1="295" y1="210" x2="320" y2="210" />
      <line x1="295" y1="216" x2="320" y2="216" />
      <line x1="14"  y1="180" x2="38"  y2="180" />
      <line x1="14"  y1="186" x2="38"  y2="186" />
      <line x1="14"  y1="192" x2="38"  y2="192" />
      <line x1="14"  y1="198" x2="38"  y2="198" />
      <line x1="14"  y1="204" x2="38"  y2="204" />
      <line x1="14"  y1="210" x2="38"  y2="210" />
      <line x1="14"  y1="216" x2="38"  y2="216" />
    </g>

    <g class="copper" stroke-width="1.6">
      <path d="M 120 250 L 108 250 L 108 200 L 140 200 L 140 176" stroke-width="1.2" />
      <path d="M 120 258 L 114 258 L 114 195 L 158 195 L 158 176" stroke-width="1.2" />

      <path d="M 120 266 L 100 266 L 100 123 L 89 123" stroke-width="1.2" />
      <path d="M 220 252 L 244 252 L 244 123 L 245 123" stroke-width="1.2" />

      <path d="M 120 282 L 95 282 L 95 444 L 53 444" stroke-width="1.2" />
      <path d="M 120 290 L 85 290 L 85 556 L 53 556" stroke-width="1.2" />

      <path d="M 220 260 L 228 260" stroke-width="1.2" />
      <path d="M 220 268 L 228 268" stroke-width="1.2" />
      <path d="M 220 276 L 228 276" stroke-width="1.2" />
      <path d="M 220 284 L 228 284" stroke-width="1.2" />
      <path d="M 220 292 L 228 292" stroke-width="1.2" />

      <path d="M 270 480 L 270 484" stroke-width="1.2" />
      <path d="M 270 540 L 270 536" stroke-width="1.2" />
      <path d="M 240 510 L 244 510" stroke-width="1.2" />
      <path d="M 300 510 L 296 510" stroke-width="1.2" />
      <path d="M 270 500 L 270 504" stroke-width="1.2" />

      <path d="M 144 326 L 144 336 L 116 336 L 116 580 L 76 580 L 76 600" stroke-width="1.2" />
      <path d="M 168 326 L 168 346 L 224 346 L 224 580 L 170 580 L 170 600" stroke-width="1.2" />
      <path d="M 192 326 L 192 356 L 230 356 L 230 580 L 264 580 L 264 600" stroke-width="1.2" />

      <path d="M 220 306 L 234 306 L 234 50 L 201 50 L 201 38" stroke-width="1.2" />

      <path d="M 200 326 L 200 366 L 100 366 L 100 645 L 58 645 L 58 662" stroke-width="1.2" />

      <path d="M 80 666 L 92 666 L 92 685" stroke-width="1.2" />
      <path d="M 150 26 L 150 40" stroke-width="1.2" />

      <path d="M 110 712 L 137 712" />
      <path d="M 203 718 L 230 718" />
      <path d="M 203 712 L 213 712" stroke-width="1.2" />
      <path d="M 208 326 L 208 340 L 213 340" stroke-width="1.2" />
    </g>
  </g>

  <text x="20" y="32" class="annot" font-weight="bold">LAUR PCB · top view</text>
  <text x="20" y="48" class="annot" fill="#666" font-size="10">pcb-wizards · rev P1 · 46 × 102 mm · 2-layer · ENIG finish</text>

  <text x="490" y="64"  class="annot" font-size="10" font-weight="bold">Notes</text>
  <text x="490" y="80"  class="annot" font-size="9">Min trace/space: 6/6 mil</text>
  <text x="490" y="94"  class="annot" font-size="9">Auto-routed</text>
  <text x="490" y="108" class="annot" font-size="9">No impedance control</text>
  <text x="490" y="128" class="annot" font-size="10" font-weight="bold">Switches</text>
  <text x="490" y="144" class="annot" font-size="9">SW1 voice (centre)</text>
  <text x="490" y="158" class="annot" font-size="9">SW2 power · SW5 mute</text>
  <text x="490" y="172" class="annot" font-size="9">SW3/4 vol +/-</text>
  <text x="490" y="186" class="annot" font-size="9">SW6-10 d-pad + OK</text>
  <text x="490" y="200" class="annot" font-size="9">SW11/12/13 transport</text>

  <text x="490" y="226" class="annot" font-size="10" font-weight="bold">Layer key</text>
  <rect x="490" y="234" width="10" height="10" fill="#b85c1a" />
  <text x="504" y="243" class="annot" font-size="9">top copper / vias</text>
  <rect x="490" y="248" width="10" height="10" fill="#d9d9d9" stroke="#999" stroke-width="0.3" />
  <text x="504" y="257" class="annot" font-size="9">SMD pads</text>
  <rect x="490" y="262" width="10" height="10" fill="#ffffff" stroke="#999" stroke-width="0.5" />
  <text x="504" y="271" class="annot" font-size="9">drill / mounting hole</text>
  <rect x="490" y="276" width="10" height="10" fill="none" stroke="#fff" stroke-width="0.8" stroke-dasharray="3 2" />
  <text x="504" y="285" class="annot" font-size="9">antenna keepout</text>
  <rect x="490" y="290" width="10" height="10" fill="#8a8a8a" stroke="#444" stroke-width="0.3" />
  <text x="504" y="299" class="annot" font-size="9">RF shield can (U1)</text>
</svg>